# xmcd
#
# Track frame offsets: 
#        150
#        19192
#        35565
#        52860
#        72322
#        87560
#        104034
#        122372
#        140474
#        155419
#        172223
#        189812
#        207373
#        227685
#        245245
#        258317
#        274023
#        290263
#        306581
#        322424
#
# Disc length: 4528 seconds
#
# Revision: 1
# Processed by: cddbd v1.5.2PL0 Copyright (c) Steve Scherf et al.
# Submitted via: ExactAudioCopy v0.99pb5
#
DISCID=3111ae14
DTITLE=Vari - Festivalbar 2008 Compilation Blu
DYEAR=2008
DGENRE=Pop
TTITLE0=Ligabue /Il Centro Del Mondo
TTITLE1=Max Pezzali /Mezzo Pieno o Mezzo Vuoto
TTITLE2=C. Cremonini /Dicono Di Me
TTITLE3=Sara Bareilles /Love Songs
TTITLE4=The Tink Tings /Great DJ
TTITLE5=Pino Daniele /Anema e Core
TTITLE6=Estelle /American Boy
TTITLE7=Le Vibrazioni /Insolita
TTITLE8=Mick Hunknall /Poverty
TTITLE9=Yael Naim /New Soul
TTITLE10=Sonohra /Love Show
TTITLE11=Leona Lewis /Better in Tima
TTITLE12=Daniele Silvestri /Monetima
TTITLE13=James Blunt /Carry You Home
TTITLE14=Bauustelle /Colombo
TTITLE15=Katie Melue /Ghost Town
TTITLE16=Madcon /Beggin
TTITLE17=Jennifer Paige /Wasted
TTITLE18=Piero Pelù /Tutti Fenomeni
TTITLE19=Negramaro /Via Le Mani Dagli Occhi
EXTD=YEAR: 2008
EXTT0=
EXTT1=
EXTT2=
EXTT3=
EXTT4=
EXTT5=
EXTT6=
EXTT7=
EXTT8=
EXTT9=
EXTT10=
EXTT11=
EXTT12=
EXTT13=
EXTT14=
EXTT15=
EXTT16=
EXTT17=
EXTT18=
EXTT19=
PLAYORDER=
